Coordinates
version=1
nRows=8
nColumns=40
inDegrees=yes

Units are S.I. units (second, meters, Newtons, ...)
Angles are in degrees.

endheader
time	pelvis_tilt	pelvis_list	pelvis_rotation	pelvis_tx	pelvis_ty	pelvis_tz	hip_flexion_r	hip_adduction_r	hip_rotation_r	knee_angle_r	knee_angle_r_beta	ankle_angle_r	subtalar_angle_r	mtp_angle_r	hip_flexion_l	hip_adduction_l	hip_rotation_l	knee_angle_l	knee_angle_l_beta	ankle_angle_l	subtalar_angle_l	mtp_angle_l	lumbar_extension	lumbar_bending	lumbar_rotation	arm_flex_r	arm_add_r	arm_rot_r	elbow_flex_r	pro_sup_r	wrist_flex_r	wrist_dev_r	arm_flex_l	arm_add_l	arm_rot_l	elbow_flex_l	pro_sup_l	wrist_flex_l	wrist_dev_l
     17.57000000	     -4.96302772	     -3.51258130	      2.14527746	      1.04959414	      0.91519768	      0.45727900	      5.41140935	     -3.88937348	    -12.22979079	     37.22755814	     37.22755814	     12.35489952	    -11.56378358	    -12.06173394	     29.26212942	     -4.85005704	     -3.56618545	     27.16291391	     27.16291391	      5.95277547	    -16.06285661	      3.79480261	    -10.74939664	      3.97406677	      2.21659169	     44.35200463	    -14.30070702	     -0.99208582	    125.10199796	     43.70624173	      0.00000000	      0.00000000	    -13.74597103	     -6.01388928	      4.95237863	     24.04515070	     45.43862474	      0.00000000	      0.00000000
     17.58142857	     -4.91099651	     -3.30070965	      1.92249069	      1.04986672	      0.91655572	      0.45471829	      7.26748661	     -4.73278822	    -11.84814369	     41.25308087	     41.25308087	     10.03562785	    -13.62253728	    -12.31983080	     28.44407476	     -4.56961886	     -3.87063069	     27.00633222	     27.00633222	      6.57366152	    -16.01933515	      3.54260814	    -10.74104134	      3.81877611	      1.98021731	     42.50906109	    -14.13928609	     -0.67964650	    125.66496220	     43.67607685	      0.00000000	      0.00000000	    -12.91299516	     -5.97060514	      4.96508442	     24.42032542	     45.45295815	      0.00000000	      0.00000000
     17.59285714	     -4.91943308	     -3.15046427	      1.66268042	      1.04999879	      0.91781284	      0.45244500	      9.31791668	     -5.47464836	    -11.48396318	     45.29424906	     45.29424906	      7.52738229	    -15.74690346	    -12.25195209	     27.62453430	     -4.39112191	     -4.27191340	     26.69614469	     26.69614469	      7.11816715	    -15.86669167	      3.26240348	    -10.65650552	      3.65697394	      1.83806010	     40.41989887	    -14.13620078	     -0.42709898	    126.17536967	     43.64920982	      0.00000000	      0.00000000	    -12.06658019	     -6.00249957	      4.92750690	     24.90338042	     45.47578752	      0.00000000	      0.00000000
     17.60428571	     -4.87222567	     -2.93784057	      1.42737172	      1.05006538	      0.91906896	      0.45010641	     11.33937696	     -6.33234580	    -11.24731984	     49.22606259	     49.22606259	      5.10954918	    -17.38130762	    -11.65968567	     26.75484170	     -4.14024226	     -4.70779404	     26.40568460	     26.40568460	      7.64995663	    -15.61630874	      2.89411772	    -10.66976951	      3.52936202	      1.66861702	     38.19611832	    -14.13554542	     -0.18641899	    126.41251058	     43.62942227	      0.00000000	      0.00000000	    -11.06377365	     -6.06759278	      4.85187173	     25.51448992	     45.50694929	      0.00000000	      0.00000000
     17.61571429	     -4.90970216	     -2.88338137	      1.16620431	      1.04995691	      0.92011083	      0.44811784	     13.66792425	     -6.90198409	    -10.88954601	     53.36225959	     53.36225959	      4.20064643	    -18.13605880	     -6.72630850	     25.95550758	     -4.11841757	     -5.27529402	     26.00887304	     26.00887304	      7.83891942	    -15.22222736	      1.66699029	    -10.63931592	      3.49173357	      2.55416739	     34.94246516	    -15.30746544	     -1.06849834	    127.79020307	     43.63858042	      0.00000000	      0.00000000	     -9.91359349	     -6.31501825	      4.37708647	     27.19322577	     45.61036571	      0.00000000	      0.00000000
     17.62714286	     -4.83412509	     -2.58394803	      0.95793777	      1.04976915	      0.92120772	      0.44595422	     15.73331342	     -7.95069211	    -10.87987522	     57.03523730	     57.03523730	      2.45689843	    -18.74684557	     -5.58746005	     25.01778472	     -3.78303572	     -5.81887893	     25.59713130	     25.59713130	      8.25647965	    -14.85953166	      1.35094371	    -10.70201758	      3.24094513	      2.03320379	     32.69399598	    -14.83400494	     -0.66997393	    127.24727905	     43.63465420	      0.00000000	      0.00000000	     -8.85976531	     -6.43557739	      4.31706211	     27.65486968	     45.63871295	      0.00000000	      0.00000000
     17.63857143	     -4.85477781	     -2.56476724	      0.72491050	      1.04933650	      0.92211680	      0.44431705	     18.28621158	     -8.25327013	    -10.28721524	     61.09087380	     61.09087380	      3.89496358	    -18.69016550	      4.98066549	     24.19030986	     -3.83180322	     -6.49511341	     25.11244501	     25.11244501	      8.28691969	    -14.25019660	     -0.22954506	    -10.66968790	      3.24520254	      2.11713356	     29.84053070	    -15.04589260	     -1.26404633	    126.43610857	     43.71105764	      0.00000000	      0.00000000	     -7.94416366	     -6.65327061	      3.55279744	     29.27828735	     45.77939067	      0.00000000	      0.00000000
     17.65000000	     -4.76653048	     -2.37365518	      0.52760650	      1.04892520	      0.92314614	      0.44249749	     20.34739640	     -8.98457047	    -10.10363480	     64.23716567	     64.23716567	      3.19940909	    -18.97127092	      7.32895059	     23.24627748	     -3.63137697	     -7.06998171	     24.65569358	     24.65569358	      8.57951333	    -13.72779520	     -0.78435775	    -10.75208745	      3.09139261	      1.89454270	     27.23502842	    -15.19196607	     -1.01207444	    125.02699091	     43.75509550	      0.00000000	      0.00000000	     -6.75096531	     -6.87464798	      3.12885798	     30.12741138	     45.86432834	      0.00000000	      0.00000000
